<svg id="Capa_1" enable-background="new 0 0 512 512" height="512" viewBox="0 0 512 512" width="512" xmlns="http://www.w3.org/2000/svg"><g><path d="m372.46 61.983c-14.325-18.234-33.4-36.118-53.73-46.478-39.479-20.119-86.172-21.22-125.462.001-21.611 11.672-38.668 27.239-53.728 46.477-32.267 41.066-71.014 113.525-50.216 166.95 13.645 35.05 49.37 56.827 82.516 69.997 1.242.493 13.783 4.696 13.783 4.696 0-.085 140.735-.085 140.735 0 0-.612 12.561-4.202 13.802-4.696 33.146-13.17 68.871-34.947 82.516-69.997 20.798-53.425-17.949-125.884-50.216-166.95z" fill="#d77f4a"/><path d="m422.672 228.93c-13.643 35.049-49.361 56.825-82.508 69.996-1.244.494-13.806 4.7-13.802 4.699-.02.005-7.861-.041-21.37-.051.555-.74 11.392-4.164 12.605-4.647 33.147-13.17 68.865-34.946 82.518-69.996 20.789-53.422-17.951-125.885-50.224-166.949-14.322-18.229-33.394-36.119-53.72-46.472-16.543-8.431-34.35-13.52-52.353-15.021 25.477-2.169 51.469 3.074 74.91 15.021 20.337 10.353 39.409 28.243 53.731 46.472 32.272 41.063 71.012 113.526 50.213 166.948z" fill="#c86d36"/><path d="m432.33 509.722h-352.388c-.279-4.794-.279-7.21-.06-11.755 1.844-38.71 20.071-72.822 49.562-97.968 32.877-28.043 66.209-39.407 78.592-43.123 2.049-.615 5.047-2.129 7.145-2.552 2.116-.427 2.885-3.011 4.431-4.102 10.973-7.664 8.82-29.302 8.82-29.302h55.135s-2.153 21.637 8.82 29.302c1.545 1.091 1.717 4.193 3.833 4.62 2.097.423 4.178.909 6.228 1.524 12.382 3.717 47.756 16.101 80.633 44.144 29.491 25.146 47.463 58.747 49.307 97.457.221 4.545.221 6.961-.058 11.755z" fill="#f6a96c"/><path d="m434.631 512h-357.262c-.279-4.794-.279-9.488-.06-14.033 1.844-38.71 20.402-74.61 49.893-99.756 32.877-28.043 68.326-40.426 80.709-44.142 2.049-.615 4.13-1.101 6.227-1.524 2.116-.427 3.929-1.232 5.474-2.323 1.707 9.705 6.186 21.313 17.379 28.583 11.487 7.461 26.531 7.461 38.018 0 11.193-7.27 15.673-18.878 17.379-28.583 1.545 1.091 3.358 1.896 5.474 2.323 2.097.423 4.178.909 6.228 1.524 12.382 3.717 47.832 16.099 80.708 44.142 29.491 25.146 48.049 61.045 49.893 99.756.219 4.545.219 9.239-.06 14.033z" fill="#fe7ab6"/><path d="m434.629 511.998h-22.825c0-2.272-.051-4.514-.154-6.724-1.851-38.72-20.409-74.612-49.896-99.76-27.914-23.801-57.679-36.324-73.604-41.835 2.19-4.503 3.485-9.161 4.236-13.458 1.54 1.089 3.347 1.892 5.453 2.318 2.106.427 4.196.912 6.254 1.529 12.388 3.719 47.831 16.102 80.703 44.146 29.497 25.148 48.055 61.04 49.896 99.75.215 4.544.215 9.242-.063 14.034z" fill="#fe5ca7"/><g fill="#f6a96c"><path d="m145.734 235.79h-4.952c-14.934 0-27.04-12.106-27.04-27.04 0-14.934 12.106-27.04 27.04-27.04h4.952z"/><path d="m366.266 235.79h4.952c14.934 0 27.04-12.106 27.04-27.04 0-14.934-12.106-27.04-27.04-27.04h-4.952z"/></g><path d="m356.39 115.459 12.156 46.046v33.994 3.428l-2.012 13.897c0 3.835.107 11.399-.268 15.132-2.658 26.541-16.154 48.849-34.011 66.705-20.362 20.362-45.168 29.956-76.255 29.956-58.327 0-104.29-40.226-109.982-97.042-.375-3.734-.568-7.528-.568-11.363l-.031-12.344-1.965-8.369v-37.913l10.788-42.126h202.148z" fill="#fed2a4"/><path d="m356.39 115.455 12.16 46.05v33.993l-2.285 7.751v13.279c0 3.835.38 7.694 0 11.426-2.653 26.547-16.152 48.856-34.011 66.705-20.357 20.367-45.164 33.661-76.255 33.661-3.465 0-6.899-.154-10.281-.473 26.989-2.426 51.212-14.394 69.297-32.489 17.859-17.849 29.744-41.671 32.397-68.217.38-3.732.576-7.526.576-11.361v-100.325z" fill="#ffbd86"/><g><g><path d="m209.998 216.25c-4.142 0-7.5-3.358-7.5-7.5v-13.833c0-4.142 3.358-7.5 7.5-7.5s7.5 3.358 7.5 7.5v13.833c0 4.143-3.358 7.5-7.5 7.5z" fill="#596c76"/></g><g><path d="m302.002 216.25c-4.143 0-7.5-3.358-7.5-7.5v-13.833c0-4.142 3.357-7.5 7.5-7.5s7.5 3.358 7.5 7.5v13.833c0 4.143-3.357 7.5-7.5 7.5z" fill="#596c76"/></g></g><path d="m368.546 195.499v20.281c0 3.835-.193 7.63-.568 11.363-2.658 26.541-14.539 50.363-32.395 68.219-20.362 20.362-48.496 32.963-79.583 32.963-58.327 0-106.286-44.367-111.978-101.183-.375-3.734-.568-7.528-.568-11.363v-20.281s23.261 35.431 84.331 45.11c18.685 2.961 37.745 2.961 56.43 0 61.069-9.678 84.331-45.109 84.331-45.109z" fill="#f5f8f9"/><path d="m368.55 195.495v20.285c0 3.835-.195 7.629-.576 11.361-2.653 26.547-14.538 50.369-32.397 68.217-20.357 20.368-48.487 32.962-79.578 32.962-2.612 0-5.133-.112-7.732-.268-.853-.051-1.707-.123-2.55-.206 26.989-2.426 51.212-14.394 69.297-32.489 17.859-17.849 29.744-41.671 32.397-68.217.38-3.732.576-7.526.576-11.361v-.401c14.374-10.455 20.563-19.883 20.563-19.883z" fill="#d9e7ec"/><path d="m266.803 112.371h-21.607-101.742l-8.997 48.44 8.997.695c40.926-1.225 81.608-9.781 103.65-31.917 3.564-3.579 6.487-6.897 8.896-9.918 2.408 3.021 5.331 6.339 8.895 9.918 22.042 22.136 62.729 30.692 103.655 31.917l9.468-.22-9.468-48.914h-101.747z" fill="#d77f4a"/></g></svg>